<svg width="225" height="242" viewBox="0 0 225 242" fill="none" xmlns="http://www.w3.org/2000/svg">
<rect y="127" width="128" height="115" fill="#C4C4C4"/>
<rect y="127" width="128" height="115"/>
<path d="M4.788 22.162C3.348 22.162 2.334 21.736 1.746 20.884C1.158 20.02 0.864 18.832 0.864 17.32V12.172C0.864 10.576 1.152 9.364 1.728 8.536C2.304 7.708 3.324 7.294 4.788 7.294C6.096 7.294 7.032 7.648 7.596 8.356C8.172 9.064 8.46 10.108 8.46 11.488V12.64H6.534V11.614C6.534 10.942 6.504 10.426 6.444 10.066C6.384 9.706 6.228 9.418 5.976 9.202C5.736 8.986 5.346 8.878 4.806 8.878C4.254 8.878 3.84 8.998 3.564 9.238C3.3 9.466 3.126 9.79 3.042 10.21C2.958 10.618 2.916 11.17 2.916 11.866V17.644C2.916 18.388 2.976 18.97 3.096 19.39C3.216 19.81 3.408 20.11 3.672 20.29C3.948 20.47 4.326 20.56 4.806 20.56C5.322 20.56 5.706 20.446 5.958 20.218C6.21 19.99 6.366 19.678 6.426 19.282C6.498 18.886 6.534 18.346 6.534 17.662V16.582H8.46V17.662C8.46 19.114 8.184 20.23 7.632 21.01C7.092 21.778 6.144 22.162 4.788 22.162ZM11.2977 7.42H16.9497V8.932H13.3317V13.756H16.2657V15.196H13.3317V20.542H16.9857V22H11.2977V7.42ZM19.7617 7.42H21.7597L24.3337 19.246L26.9257 7.42H28.9058L29.1757 22H27.5377L27.3757 11.416L24.9097 22H23.7577L21.3097 11.416L21.1477 22H19.4917L19.7617 7.42ZM32.3106 7.42H34.1106V17.518L38.3766 7.42H39.8346V22H38.0526V11.74L33.8226 22H32.3106V7.42ZM43.0192 7.42H45.0532V13.72H48.7972V7.42H50.8312V22H48.7972V15.178H45.0532V22H43.0192V7.42ZM56.313 7.42H58.275L61.389 22H59.463L58.797 18.328H55.827L55.125 22H53.217L56.313 7.42ZM58.527 16.87L57.303 10.3L56.097 16.87H58.527ZM63.7684 7.42H67.3864C68.6464 7.42 69.5584 7.762 70.1224 8.446C70.6984 9.13 70.9864 10.132 70.9864 11.452C70.9864 12.64 70.6804 13.564 70.0684 14.224C69.4564 14.884 68.5684 15.214 67.4044 15.214H65.8024V22H63.7684V7.42ZM66.7384 13.756C67.3384 13.756 67.8004 13.69 68.1244 13.558C68.4604 13.426 68.7004 13.198 68.8444 12.874C68.9884 12.55 69.0604 12.082 69.0604 11.47C69.0604 10.726 69.0064 10.18 68.8984 9.832C68.7904 9.484 68.5744 9.238 68.2504 9.094C67.9384 8.95 67.4404 8.878 66.7564 8.878H65.8024V13.756H66.7384ZM1.134 34.42H4.068C5.544 34.42 6.624 34.726 7.308 35.338C8.004 35.938 8.352 36.922 8.352 38.29C8.352 40.162 7.752 41.296 6.552 41.692L8.622 49H6.66L4.752 42.16H3.168V49H1.134V34.42ZM3.942 40.702C4.818 40.702 5.442 40.528 5.814 40.18C6.198 39.832 6.39 39.202 6.39 38.29C6.39 37.69 6.324 37.222 6.192 36.886C6.06 36.538 5.826 36.286 5.49 36.13C5.154 35.962 4.68 35.878 4.068 35.878H3.168V40.702H3.942ZM15.094 49.162C13.666 49.162 12.64 48.76 12.016 47.956C11.404 47.14 11.098 45.964 11.098 44.428V38.902C11.098 37.39 11.41 36.244 12.034 35.464C12.658 34.684 13.678 34.294 15.094 34.294C16.51 34.294 17.524 34.69 18.136 35.482C18.76 36.262 19.072 37.402 19.072 38.902V44.446C19.072 45.958 18.76 47.122 18.136 47.938C17.512 48.754 16.498 49.162 15.094 49.162ZM15.094 47.56C15.85 47.56 16.36 47.338 16.624 46.894C16.888 46.45 17.02 45.778 17.02 44.878V38.488C17.02 37.6 16.888 36.946 16.624 36.526C16.36 36.094 15.85 35.878 15.094 35.878C14.326 35.878 13.81 36.094 13.546 36.526C13.282 36.946 13.15 37.6 13.15 38.488V44.878C13.15 45.778 13.282 46.45 13.546 46.894C13.81 47.338 14.326 47.56 15.094 47.56ZM21.9711 34.42H25.3191C26.6391 34.42 27.6171 34.72 28.2531 35.32C28.8891 35.908 29.2071 36.826 29.2071 38.074C29.2071 39.934 28.5111 40.96 27.1191 41.152C27.9831 41.356 28.6131 41.764 29.0091 42.376C29.4051 42.976 29.6031 43.798 29.6031 44.842C29.6031 46.15 29.2911 47.17 28.6671 47.902C28.0551 48.634 27.1191 49 25.8591 49H21.9711V34.42ZM25.2111 40.504C26.0511 40.504 26.6331 40.324 26.9571 39.964C27.2811 39.592 27.4431 38.962 27.4431 38.074C27.4431 37.426 27.3411 36.952 27.1371 36.652C26.9451 36.34 26.6511 36.142 26.2551 36.058C25.8591 35.974 25.2711 35.932 24.4911 35.932H24.0051V40.504H25.2111ZM25.3731 47.542C25.9731 47.542 26.4351 47.452 26.7591 47.272C27.0951 47.08 27.3291 46.792 27.4611 46.408C27.5931 46.024 27.6591 45.502 27.6591 44.842C27.6591 43.906 27.4671 43.21 27.0831 42.754C26.6991 42.286 26.0751 42.052 25.2111 42.052H24.0051V47.542H25.3731ZM32.3106 34.42H37.9626V35.932H34.3446V40.756H37.2786V42.196H34.3446V47.542H37.9986V49H32.3106V34.42Z" fill="#343434"/>
<path d="M160.694 238H153.92V236.783L156.497 234.192C157.258 233.413 157.762 232.862 158.008 232.538C158.258 232.21 158.441 231.902 158.555 231.615C158.669 231.328 158.726 231.021 158.726 230.692C158.726 230.241 158.589 229.886 158.315 229.626C158.047 229.366 157.673 229.236 157.194 229.236C156.812 229.236 156.44 229.307 156.08 229.448C155.725 229.59 155.312 229.845 154.843 230.214L153.975 229.154C154.531 228.685 155.071 228.352 155.595 228.156C156.119 227.96 156.677 227.862 157.27 227.862C158.199 227.862 158.944 228.106 159.505 228.594C160.065 229.077 160.346 229.729 160.346 230.549C160.346 231 160.264 231.428 160.1 231.834C159.94 232.24 159.692 232.659 159.354 233.092C159.022 233.52 158.466 234.101 157.687 234.835L155.95 236.517V236.585H160.694V238ZM163.053 238L167.004 229.435H161.809V228.02H168.72V229.141L164.789 238H163.053ZM170.21 237.146C170.21 236.813 170.297 236.558 170.47 236.38C170.643 236.202 170.894 236.113 171.222 236.113C171.554 236.113 171.807 236.207 171.98 236.394C172.154 236.576 172.24 236.826 172.24 237.146C172.24 237.469 172.151 237.727 171.974 237.918C171.8 238.105 171.55 238.198 171.222 238.198C170.894 238.198 170.643 238.105 170.47 237.918C170.297 237.731 170.21 237.474 170.21 237.146ZM180.546 233.003C180.546 234.739 180.266 236.029 179.705 236.872C179.149 237.715 178.297 238.137 177.148 238.137C176.036 238.137 175.193 237.701 174.619 236.831C174.045 235.961 173.758 234.685 173.758 233.003C173.758 231.239 174.036 229.94 174.592 229.106C175.152 228.268 176.005 227.849 177.148 227.849C178.265 227.849 179.11 228.286 179.685 229.161C180.259 230.036 180.546 231.317 180.546 233.003ZM175.385 233.003C175.385 234.366 175.524 235.339 175.802 235.922C176.084 236.505 176.533 236.797 177.148 236.797C177.764 236.797 178.213 236.501 178.495 235.908C178.782 235.316 178.926 234.347 178.926 233.003C178.926 231.663 178.782 230.695 178.495 230.098C178.213 229.496 177.764 229.195 177.148 229.195C176.533 229.195 176.084 229.489 175.802 230.077C175.524 230.665 175.385 231.64 175.385 233.003ZM186.486 238H184.88V231.547C184.88 230.777 184.898 230.166 184.935 229.715C184.83 229.824 184.7 229.945 184.545 230.077C184.395 230.209 183.884 230.629 183.014 231.335L182.207 230.316L185.146 228.006H186.486V238ZM190.062 237.146C190.062 236.813 190.148 236.558 190.321 236.38C190.494 236.202 190.745 236.113 191.073 236.113C191.406 236.113 191.659 236.207 191.832 236.394C192.005 236.576 192.092 236.826 192.092 237.146C192.092 237.469 192.003 237.727 191.825 237.918C191.652 238.105 191.401 238.198 191.073 238.198C190.745 238.198 190.494 238.105 190.321 237.918C190.148 237.731 190.062 237.474 190.062 237.146ZM200.397 238H193.623V236.783L196.2 234.192C196.961 233.413 197.465 232.862 197.711 232.538C197.962 232.21 198.144 231.902 198.258 231.615C198.372 231.328 198.429 231.021 198.429 230.692C198.429 230.241 198.292 229.886 198.019 229.626C197.75 229.366 197.376 229.236 196.897 229.236C196.515 229.236 196.143 229.307 195.783 229.448C195.428 229.59 195.015 229.845 194.546 230.214L193.678 229.154C194.234 228.685 194.774 228.352 195.298 228.156C195.822 227.96 196.38 227.862 196.973 227.862C197.902 227.862 198.647 228.106 199.208 228.594C199.769 229.077 200.049 229.729 200.049 230.549C200.049 231 199.967 231.428 199.803 231.834C199.643 232.24 199.395 232.659 199.058 233.092C198.725 233.52 198.169 234.101 197.39 234.835L195.653 236.517V236.585H200.397V238ZM208.396 233.003C208.396 234.739 208.115 236.029 207.555 236.872C206.999 237.715 206.146 238.137 204.998 238.137C203.886 238.137 203.043 237.701 202.469 236.831C201.895 235.961 201.607 234.685 201.607 233.003C201.607 231.239 201.885 229.94 202.441 229.106C203.002 228.268 203.854 227.849 204.998 227.849C206.115 227.849 206.96 228.286 207.534 229.161C208.108 230.036 208.396 231.317 208.396 233.003ZM203.234 233.003C203.234 234.366 203.373 235.339 203.651 235.922C203.934 236.505 204.383 236.797 204.998 236.797C205.613 236.797 206.062 236.501 206.345 235.908C206.632 235.316 206.775 234.347 206.775 233.003C206.775 231.663 206.632 230.695 206.345 230.098C206.062 229.496 205.613 229.195 204.998 229.195C204.383 229.195 203.934 229.489 203.651 230.077C203.373 230.665 203.234 231.64 203.234 233.003ZM214.336 238H212.729V231.547C212.729 230.777 212.748 230.166 212.784 229.715C212.679 229.824 212.549 229.945 212.395 230.077C212.244 230.209 211.734 230.629 210.863 231.335L210.057 230.316L212.996 228.006H214.336V238ZM224.378 232.271C224.378 234.24 223.981 235.71 223.188 236.681C222.396 237.651 221.201 238.137 219.606 238.137C219 238.137 218.565 238.1 218.301 238.027V236.681C218.706 236.795 219.114 236.852 219.524 236.852C220.609 236.852 221.418 236.56 221.951 235.977C222.484 235.393 222.776 234.477 222.826 233.229H222.744C222.475 233.639 222.149 233.935 221.767 234.117C221.388 234.299 220.944 234.391 220.434 234.391C219.549 234.391 218.854 234.115 218.349 233.563C217.843 233.012 217.59 232.256 217.59 231.294C217.59 230.25 217.882 229.421 218.465 228.806C219.053 228.186 219.853 227.876 220.864 227.876C221.575 227.876 222.195 228.049 222.724 228.396C223.252 228.742 223.66 229.245 223.947 229.906C224.234 230.562 224.378 231.351 224.378 232.271ZM220.892 229.209C220.336 229.209 219.91 229.391 219.613 229.756C219.317 230.116 219.169 230.624 219.169 231.28C219.169 231.85 219.306 232.299 219.579 232.627C219.857 232.951 220.276 233.112 220.837 233.112C221.379 233.112 221.835 232.951 222.204 232.627C222.573 232.303 222.758 231.925 222.758 231.492C222.758 231.087 222.678 230.708 222.519 230.357C222.364 230.002 222.145 229.722 221.862 229.517C221.58 229.312 221.256 229.209 220.892 229.209Z" fill="#979797"/>
<path d="M6.69238 76.3574C6.69238 76.9772 6.49642 77.499 6.10449 77.9229C5.71712 78.3467 5.19531 78.6178 4.53906 78.7363V78.7773C5.34115 78.8776 5.95182 79.1328 6.37109 79.543C6.79036 79.9531 7 80.5046 7 81.1973C7 82.1315 6.68099 82.8561 6.04297 83.3711C5.40951 83.8815 4.49577 84.1367 3.30176 84.1367C2.28548 84.1367 1.39909 83.9476 0.642578 83.5693V82.8926C1.02539 83.0931 1.45378 83.2503 1.92773 83.3643C2.40625 83.4782 2.85514 83.5352 3.27441 83.5352C4.28158 83.5352 5.03809 83.3324 5.54395 82.9268C6.0498 82.5166 6.30273 81.9401 6.30273 81.1973C6.30273 80.5365 6.04297 80.0283 5.52344 79.6729C5.00846 79.3174 4.24967 79.1396 3.24707 79.1396H2.16699V78.4834H3.26074C4.09017 78.4834 4.74642 78.2874 5.22949 77.8955C5.71712 77.499 5.96094 76.9635 5.96094 76.2891C5.96094 75.7331 5.7627 75.2887 5.36621 74.9561C4.97428 74.6188 4.45931 74.4502 3.82129 74.4502C3.32454 74.4502 2.87109 74.5208 2.46094 74.6621C2.05078 74.7988 1.59049 75.0358 1.08008 75.373L0.745117 74.915C1.13249 74.5915 1.59961 74.3363 2.14648 74.1494C2.69336 73.958 3.24707 73.8623 3.80762 73.8623C4.72819 73.8623 5.43913 74.0811 5.94043 74.5186C6.44173 74.9515 6.69238 75.5645 6.69238 76.3574ZM15.21 78.9756C15.21 80.7301 14.9411 82.029 14.4033 82.8721C13.8701 83.7152 13.0612 84.1367 11.9766 84.1367C10.9329 84.1367 10.14 83.7038 9.59766 82.8379C9.05534 81.9674 8.78418 80.68 8.78418 78.9756C8.78418 77.2347 9.04622 75.945 9.57031 75.1064C10.099 74.2679 10.901 73.8486 11.9766 73.8486C13.0293 73.8486 13.8314 74.2839 14.3828 75.1543C14.9342 76.0202 15.21 77.2939 15.21 78.9756ZM9.52246 78.9756C9.52246 80.5251 9.72526 81.6712 10.1309 82.4141C10.5365 83.1523 11.1517 83.5215 11.9766 83.5215C12.8379 83.5215 13.4645 83.1387 13.8564 82.373C14.2529 81.6074 14.4512 80.4749 14.4512 78.9756C14.4512 77.499 14.2529 76.3779 13.8564 75.6123C13.4645 74.8467 12.8379 74.4639 11.9766 74.4639C11.1152 74.4639 10.4909 74.8467 10.1035 75.6123C9.71615 76.3779 9.52246 77.499 9.52246 78.9756ZM20.7676 84H19.9131L22.1553 80.7939C21.4717 80.6663 20.9772 80.4294 20.6719 80.083C20.3711 79.7367 20.2207 79.2923 20.2207 78.75C20.2207 78.0755 20.4463 77.5446 20.8975 77.1572C21.3532 76.7653 21.9639 76.5693 22.7295 76.5693H25.792V84H25.1221V80.876H22.8525L20.7676 84ZM20.9316 78.7227C20.9316 79.2331 21.0957 79.6136 21.4238 79.8643C21.7565 80.1104 22.2555 80.2334 22.9209 80.2334H25.1221V77.2119H22.7158C22.1507 77.2119 21.7109 77.3418 21.3965 77.6016C21.0866 77.8568 20.9316 78.2305 20.9316 78.7227ZM28.9639 76.5693V79.8301H33.6807V76.5693H34.3506V84H33.6807V80.418H28.9639V84H28.2871V76.5693H28.9639ZM42.5469 78.3604C42.5469 78.8298 42.4307 79.1989 42.1982 79.4678C41.9658 79.7321 41.5876 79.9167 41.0635 80.0215V80.0693C41.6605 80.1377 42.0911 80.3109 42.3555 80.5889C42.6243 80.8623 42.7588 81.2565 42.7588 81.7715C42.7588 82.487 42.5218 83.0384 42.0479 83.4258C41.5785 83.8086 40.8903 84 39.9834 84H36.8457V76.5693H39.9971C40.8447 76.5693 41.4805 76.722 41.9043 77.0273C42.3327 77.3327 42.5469 77.777 42.5469 78.3604ZM42.041 81.7578C42.041 80.8464 41.3415 80.3906 39.9424 80.3906H37.5225V83.3574H40.0381C41.3734 83.3574 42.041 82.8242 42.041 81.7578ZM41.8291 78.415C41.8291 77.9821 41.6742 77.6745 41.3643 77.4922C41.0544 77.3053 40.5895 77.2119 39.9697 77.2119H37.5225V79.7549H39.8877C40.5804 79.7549 41.0771 79.6478 41.3779 79.4336C41.6787 79.2194 41.8291 78.8799 41.8291 78.415ZM49.2871 84L49.1162 82.8242H49.0615C48.6878 83.3027 48.3027 83.6423 47.9062 83.8428C47.5143 84.0387 47.0495 84.1367 46.5117 84.1367C45.7826 84.1367 45.2152 83.9499 44.8096 83.5762C44.404 83.2025 44.2012 82.6852 44.2012 82.0244C44.2012 81.2998 44.502 80.737 45.1035 80.3359C45.7096 79.9349 46.5846 79.723 47.7285 79.7002L49.1436 79.6592V79.167C49.1436 78.4606 49 77.9274 48.7129 77.5674C48.4258 77.2074 47.9632 77.0273 47.3252 77.0273C46.637 77.0273 45.9238 77.2188 45.1855 77.6016L44.9326 77.0137C45.7484 76.6309 46.555 76.4395 47.3525 76.4395C48.1683 76.4395 48.7767 76.6514 49.1777 77.0752C49.5833 77.499 49.7861 78.1598 49.7861 79.0576V84H49.2871ZM46.5527 83.5215C47.3457 83.5215 47.9701 83.2959 48.4258 82.8447C48.8861 82.389 49.1162 81.7578 49.1162 80.9512V80.2197L47.8174 80.2744C46.7738 80.3245 46.0286 80.4886 45.582 80.7666C45.14 81.04 44.9189 81.4684 44.9189 82.0518C44.9189 82.5166 45.0602 82.8789 45.3428 83.1387C45.6299 83.3939 46.0332 83.5215 46.5527 83.5215ZM55.3779 84.1367C54.234 84.1367 53.4001 83.7083 52.876 82.8516H52.8281L52.8486 83.4258C52.8669 83.763 52.876 84.1322 52.876 84.5332V87.3633H52.1992V76.5693H52.7734L52.9033 77.6289H52.9443C53.4548 76.8268 54.2705 76.4258 55.3916 76.4258C56.3942 76.4258 57.1576 76.7562 57.6816 77.417C58.2103 78.0732 58.4746 79.0303 58.4746 80.2881C58.4746 81.5094 58.1966 82.4574 57.6406 83.1318C57.0892 83.8018 56.335 84.1367 55.3779 84.1367ZM55.3643 83.5352C56.1253 83.5352 56.7132 83.2526 57.1279 82.6875C57.5472 82.1224 57.7568 81.3317 57.7568 80.3154C57.7568 78.1325 56.9684 77.041 55.3916 77.041C54.5257 77.041 53.89 77.2803 53.4844 77.7588C53.0788 78.2327 52.876 79.0075 52.876 80.083V80.3018C52.876 81.4639 53.0697 82.2933 53.457 82.79C53.849 83.2868 54.4847 83.5352 55.3643 83.5352ZM60.4297 84H59.5752L61.8174 80.7939C61.1338 80.6663 60.6393 80.4294 60.334 80.083C60.0332 79.7367 59.8828 79.2923 59.8828 78.75C59.8828 78.0755 60.1084 77.5446 60.5596 77.1572C61.0153 76.7653 61.626 76.5693 62.3916 76.5693H65.4541V84H64.7842V80.876H62.5146L60.4297 84ZM60.5938 78.7227C60.5938 79.2331 60.7578 79.6136 61.0859 79.8643C61.4186 80.1104 61.9176 80.2334 62.583 80.2334H64.7842V77.2119H62.3779C61.8128 77.2119 61.373 77.3418 61.0586 77.6016C60.7487 77.8568 60.5938 78.2305 60.5938 78.7227ZM77.3691 84H71.1143V83.3984L73.7734 80.623C74.5208 79.8483 75.0449 79.2559 75.3457 78.8457C75.6465 78.4355 75.8675 78.0436 76.0088 77.6699C76.1501 77.2962 76.2207 76.9043 76.2207 76.4941C76.2207 75.8971 76.0247 75.4118 75.6328 75.0381C75.2409 74.6644 74.7327 74.4775 74.1084 74.4775C73.2744 74.4775 72.4769 74.7806 71.7158 75.3867L71.3467 74.915C72.1807 74.2132 73.1058 73.8623 74.1221 73.8623C74.9925 73.8623 75.6761 74.0947 76.1729 74.5596C76.6742 75.0244 76.9248 75.6647 76.9248 76.4805C76.9248 77.1413 76.7562 77.7816 76.4189 78.4014C76.0863 79.0166 75.4756 79.7777 74.5869 80.6846L72.0234 83.3164V83.3438H77.3691V84ZM85.5518 78.9756C85.5518 80.7301 85.2829 82.029 84.7451 82.8721C84.2119 83.7152 83.403 84.1367 82.3184 84.1367C81.2747 84.1367 80.4818 83.7038 79.9395 82.8379C79.3971 81.9674 79.126 80.68 79.126 78.9756C79.126 77.2347 79.388 75.945 79.9121 75.1064C80.4408 74.2679 81.2428 73.8486 82.3184 73.8486C83.3711 73.8486 84.1732 74.2839 84.7246 75.1543C85.276 76.0202 85.5518 77.2939 85.5518 78.9756ZM79.8643 78.9756C79.8643 80.5251 80.0671 81.6712 80.4727 82.4141C80.8783 83.1523 81.4935 83.5215 82.3184 83.5215C83.1797 83.5215 83.8063 83.1387 84.1982 82.373C84.5947 81.6074 84.793 80.4749 84.793 78.9756C84.793 77.499 84.5947 76.3779 84.1982 75.6123C83.8063 74.8467 83.1797 74.4639 82.3184 74.4639C81.457 74.4639 80.8327 74.8467 80.4453 75.6123C80.0579 76.3779 79.8643 77.499 79.8643 78.9756ZM91 84H90.3301V76.7197C90.3301 76.0589 90.3574 75.373 90.4121 74.6621C90.3438 74.7305 90.2731 74.7965 90.2002 74.8604C90.1273 74.9242 89.4232 75.4779 88.0879 76.5215L87.6982 76.0361L90.4121 74.0059H91V84ZM96.6191 84L100.734 74.6621H95.0811V74.0059H101.548V74.5049L97.4189 84H96.6191ZM111.583 77.1572H107.892V84H107.215V76.5693H111.583V77.1572ZM119.253 80.2744C119.253 81.4867 118.959 82.4346 118.371 83.1182C117.783 83.7972 116.972 84.1367 115.938 84.1367C115.286 84.1367 114.712 83.9795 114.215 83.665C113.718 83.3506 113.338 82.8994 113.073 82.3115C112.809 81.7236 112.677 81.0446 112.677 80.2744C112.677 79.0622 112.971 78.1188 113.559 77.4443C114.146 76.7653 114.953 76.4258 115.979 76.4258C116.999 76.4258 117.799 76.7699 118.378 77.458C118.961 78.1416 119.253 79.0804 119.253 80.2744ZM113.388 80.2744C113.388 81.2952 113.611 82.0928 114.058 82.667C114.509 83.2367 115.145 83.5215 115.965 83.5215C116.785 83.5215 117.419 83.2367 117.865 82.667C118.316 82.0928 118.542 81.2952 118.542 80.2744C118.542 79.249 118.314 78.4538 117.858 77.8887C117.407 77.3236 116.771 77.041 115.951 77.041C115.131 77.041 114.497 77.3236 114.051 77.8887C113.609 78.4492 113.388 79.2445 113.388 80.2744ZM127.374 86.5225H126.704V84H121.017V86.5225H120.347V83.3574H120.839C121.459 82.487 121.937 81.4775 122.274 80.3291C122.612 79.1807 122.789 77.9274 122.808 76.5693H126.383V83.3574H127.374V86.5225ZM125.706 83.3574V77.1982H123.396C123.286 79.6637 122.689 81.7168 121.604 83.3574H125.706ZM133.465 84L133.294 82.8242H133.239C132.866 83.3027 132.48 83.6423 132.084 83.8428C131.692 84.0387 131.227 84.1367 130.689 84.1367C129.96 84.1367 129.393 83.9499 128.987 83.5762C128.582 83.2025 128.379 82.6852 128.379 82.0244C128.379 81.2998 128.68 80.737 129.281 80.3359C129.887 79.9349 130.762 79.723 131.906 79.7002L133.321 79.6592V79.167C133.321 78.4606 133.178 77.9274 132.891 77.5674C132.604 77.2074 132.141 77.0273 131.503 77.0273C130.815 77.0273 130.102 77.2188 129.363 77.6016L129.11 77.0137C129.926 76.6309 130.733 76.4395 131.53 76.4395C132.346 76.4395 132.954 76.6514 133.355 77.0752C133.761 77.499 133.964 78.1598 133.964 79.0576V84H133.465ZM130.73 83.5215C131.523 83.5215 132.148 83.2959 132.604 82.8447C133.064 82.389 133.294 81.7578 133.294 80.9512V80.2197L131.995 80.2744C130.951 80.3245 130.206 80.4886 129.76 80.7666C129.318 81.04 129.097 81.4684 129.097 82.0518C129.097 82.5166 129.238 82.8789 129.521 83.1387C129.808 83.3939 130.211 83.5215 130.73 83.5215ZM140.69 76.5693V79.8301H145.407V76.5693H146.077V84H145.407V80.418H140.69V84H140.014V76.5693H140.69ZM153.084 84L152.913 82.8242H152.858C152.485 83.3027 152.1 83.6423 151.703 83.8428C151.311 84.0387 150.846 84.1367 150.309 84.1367C149.579 84.1367 149.012 83.9499 148.606 83.5762C148.201 83.2025 147.998 82.6852 147.998 82.0244C147.998 81.2998 148.299 80.737 148.9 80.3359C149.507 79.9349 150.382 79.723 151.525 79.7002L152.94 79.6592V79.167C152.94 78.4606 152.797 77.9274 152.51 77.5674C152.223 77.2074 151.76 77.0273 151.122 77.0273C150.434 77.0273 149.721 77.2188 148.982 77.6016L148.729 77.0137C149.545 76.6309 150.352 76.4395 151.149 76.4395C151.965 76.4395 152.574 76.6514 152.975 77.0752C153.38 77.499 153.583 78.1598 153.583 79.0576V84H153.084ZM150.35 83.5215C151.143 83.5215 151.767 83.2959 152.223 82.8447C152.683 82.389 152.913 81.7578 152.913 80.9512V80.2197L151.614 80.2744C150.571 80.3245 149.826 80.4886 149.379 80.7666C148.937 81.04 148.716 81.4684 148.716 82.0518C148.716 82.5166 148.857 82.8789 149.14 83.1387C149.427 83.3939 149.83 83.5215 150.35 83.5215ZM161.055 83.3574H164.76V76.5693H165.437V84H155.996V76.5693H156.673V83.3574H160.378V76.5693H161.055V83.3574ZM168.574 76.5693V81.9424L168.533 83.3438L172.942 76.5693H173.845V84H173.195V78.6611L173.223 77.2256L168.813 84H167.932V76.5693H168.574ZM4.21094 103.137C3.14909 103.137 2.31738 102.802 1.71582 102.132C1.11426 101.462 0.813477 100.528 0.813477 99.3291C0.813477 98.0986 1.12565 97.1416 1.75 96.458C2.37435 95.7699 3.22884 95.4258 4.31348 95.4258C4.95605 95.4258 5.57129 95.5374 6.15918 95.7607L5.97461 96.3623C5.33203 96.1481 4.77376 96.041 4.2998 96.041C3.38835 96.041 2.69792 96.3236 2.22852 96.8887C1.75911 97.4492 1.52441 98.2581 1.52441 99.3154C1.52441 100.318 1.75911 101.104 2.22852 101.674C2.69792 102.239 3.35417 102.521 4.19727 102.521C4.87174 102.521 5.49837 102.401 6.07715 102.159V102.788C5.60319 103.021 4.98112 103.137 4.21094 103.137ZM14.0479 99.2744C14.0479 100.487 13.7539 101.435 13.166 102.118C12.5781 102.797 11.7669 103.137 10.7324 103.137C10.0807 103.137 9.50651 102.979 9.00977 102.665C8.51302 102.351 8.13249 101.899 7.86816 101.312C7.60384 100.724 7.47168 100.045 7.47168 99.2744C7.47168 98.0622 7.76562 97.1188 8.35352 96.4443C8.94141 95.7653 9.74805 95.4258 10.7734 95.4258C11.7943 95.4258 12.5941 95.7699 13.1729 96.458C13.7562 97.1416 14.0479 98.0804 14.0479 99.2744ZM8.18262 99.2744C8.18262 100.295 8.40592 101.093 8.85254 101.667C9.30371 102.237 9.93945 102.521 10.7598 102.521C11.5801 102.521 12.2135 102.237 12.6602 101.667C13.1113 101.093 13.3369 100.295 13.3369 99.2744C13.3369 98.249 13.109 97.4538 12.6533 96.8887C12.2021 96.3236 11.5664 96.041 10.7461 96.041C9.92578 96.041 9.29232 96.3236 8.8457 96.8887C8.40365 97.4492 8.18262 98.2445 8.18262 99.2744ZM20.8223 96.1572H18.3477V103H17.6777V96.1572H15.1416V95.5693H20.8223V96.1572ZM25.5322 103.137C24.3883 103.137 23.5544 102.708 23.0303 101.852H22.9824L23.0029 102.426C23.0212 102.763 23.0303 103.132 23.0303 103.533V106.363H22.3535V95.5693H22.9277L23.0576 96.6289H23.0986C23.609 95.8268 24.4248 95.4258 25.5459 95.4258C26.5485 95.4258 27.3118 95.7562 27.8359 96.417C28.3646 97.0732 28.6289 98.0303 28.6289 99.2881C28.6289 100.509 28.3509 101.457 27.7949 102.132C27.2435 102.802 26.4893 103.137 25.5322 103.137ZM25.5186 102.535C26.2796 102.535 26.8675 102.253 27.2822 101.688C27.7015 101.122 27.9111 100.332 27.9111 99.3154C27.9111 97.1325 27.1227 96.041 25.5459 96.041C24.68 96.041 24.0443 96.2803 23.6387 96.7588C23.2331 97.2327 23.0303 98.0075 23.0303 99.083V99.3018C23.0303 100.464 23.224 101.293 23.6113 101.79C24.0033 102.287 24.639 102.535 25.5186 102.535ZM29.4492 95.5693H30.1465L31.7188 99.7393C32.1973 101.02 32.5003 101.883 32.6279 102.33H32.6689C32.8604 101.742 33.1725 100.865 33.6055 99.6982L35.1777 95.5693H35.875L32.5459 104.203C32.277 104.905 32.0514 105.379 31.8691 105.625C31.6868 105.871 31.4727 106.056 31.2266 106.179C30.985 106.302 30.6911 106.363 30.3447 106.363C30.085 106.363 29.7956 106.315 29.4766 106.22V105.632C29.7409 105.705 30.0257 105.741 30.3311 105.741C30.5635 105.741 30.7686 105.687 30.9463 105.577C31.124 105.468 31.2835 105.297 31.4248 105.064C31.5706 104.837 31.737 104.472 31.9238 103.971C32.1152 103.474 32.2383 103.15 32.293 103L29.4492 95.5693ZM43.1826 105.522H42.5127V103H36.8252V105.522H36.1553V102.357H36.6475C37.2673 101.487 37.7458 100.478 38.083 99.3291C38.4202 98.1807 38.598 96.9274 38.6162 95.5693H42.1914V102.357H43.1826V105.522ZM41.5146 102.357V96.1982H39.2041C39.0947 98.6637 38.4977 100.717 37.4131 102.357H41.5146ZM45.4385 95.5693V98.8301H50.1553V95.5693H50.8252V103H50.1553V99.418H45.4385V103H44.7617V95.5693H45.4385ZM53.9629 95.5693V100.942L53.9219 102.344L58.3311 95.5693H59.2334V103H58.584V97.6611L58.6113 96.2256L54.2021 103H53.3203V95.5693H53.9629ZM65.7617 95.5693H66.6025L63.2734 99.165L66.8418 103H65.9326L62.4189 99.2334V103H61.7285V95.5693H62.4189V99.1787L65.7617 95.5693ZM68.7969 95.5693V100.942L68.7559 102.344L73.165 95.5693H74.0674V103H73.418V97.6611L73.4453 96.2256L69.0361 103H68.1543V95.5693H68.7969ZM80.876 103H80.1992V95.5693H86.126V103H85.4492V96.2119H80.876V103ZM94.7666 99.2744C94.7666 100.487 94.4727 101.435 93.8848 102.118C93.2969 102.797 92.4857 103.137 91.4512 103.137C90.7995 103.137 90.2253 102.979 89.7285 102.665C89.2318 102.351 88.8512 101.899 88.5869 101.312C88.3226 100.724 88.1904 100.045 88.1904 99.2744C88.1904 98.0622 88.4844 97.1188 89.0723 96.4443C89.6602 95.7653 90.4668 95.4258 91.4922 95.4258C92.513 95.4258 93.3128 95.7699 93.8916 96.458C94.4749 97.1416 94.7666 98.0804 94.7666 99.2744ZM88.9014 99.2744C88.9014 100.295 89.1247 101.093 89.5713 101.667C90.0225 102.237 90.6582 102.521 91.4785 102.521C92.2988 102.521 92.9323 102.237 93.3789 101.667C93.8301 101.093 94.0557 100.295 94.0557 99.2744C94.0557 98.249 93.8278 97.4538 93.3721 96.8887C92.9209 96.3236 92.2852 96.041 91.4648 96.041C90.6445 96.041 90.0111 96.3236 89.5645 96.8887C89.1224 97.4492 88.9014 98.2445 88.9014 99.2744ZM96.4209 98.5361C96.4209 95.3096 97.3301 93.4707 99.1484 93.0195C99.7865 92.86 100.397 92.7256 100.98 92.6162C101.568 92.5023 102.088 92.402 102.539 92.3154L102.662 92.9033L101.842 93.0605C100.488 93.3158 99.5951 93.5117 99.1621 93.6484C98.5469 93.8262 98.0638 94.2523 97.7129 94.9268C97.3665 95.6012 97.1683 96.5241 97.1182 97.6953H97.1592C97.6468 97.1165 98.1208 96.7041 98.5811 96.458C99.0413 96.2074 99.5153 96.082 100.003 96.082C100.914 96.082 101.612 96.376 102.095 96.9639C102.578 97.5518 102.819 98.388 102.819 99.4727C102.819 100.626 102.541 101.526 101.985 102.173C101.429 102.815 100.648 103.137 99.6406 103.137C98.6198 103.137 97.8268 102.738 97.2617 101.94C96.7012 101.143 96.4209 100.008 96.4209 98.5361ZM99.6953 102.521C100.475 102.521 101.069 102.262 101.479 101.742C101.894 101.223 102.102 100.475 102.102 99.5C102.102 98.5749 101.917 97.8776 101.548 97.4082C101.183 96.9342 100.646 96.6973 99.9346 96.6973C99.4059 96.6973 98.8932 96.8636 98.3965 97.1963C97.9043 97.5244 97.4736 97.9801 97.1045 98.5635C97.1045 99.3792 97.2048 100.095 97.4053 100.71C97.6104 101.325 97.9066 101.781 98.2939 102.077C98.6813 102.373 99.1484 102.521 99.6953 102.521ZM105.54 98.7002H107.905C109.651 98.7002 110.523 99.3861 110.523 100.758C110.523 101.464 110.28 102.016 109.792 102.412C109.304 102.804 108.605 103 107.693 103H104.863V95.5693H105.54V98.7002ZM105.54 99.3428V102.357H107.803C108.445 102.357 108.94 102.223 109.286 101.954C109.632 101.685 109.806 101.282 109.806 100.744C109.806 100.252 109.653 99.8965 109.348 99.6777C109.042 99.4544 108.514 99.3428 107.762 99.3428H105.54ZM112.492 103H111.822V95.5693H112.492V103ZM120.695 97.3604C120.695 97.8298 120.579 98.1989 120.347 98.4678C120.114 98.7321 119.736 98.9167 119.212 99.0215V99.0693C119.809 99.1377 120.24 99.3109 120.504 99.5889C120.773 99.8623 120.907 100.257 120.907 100.771C120.907 101.487 120.67 102.038 120.196 102.426C119.727 102.809 119.039 103 118.132 103H114.994V95.5693H118.146C118.993 95.5693 119.629 95.722 120.053 96.0273C120.481 96.3327 120.695 96.777 120.695 97.3604ZM120.189 100.758C120.189 99.8464 119.49 99.3906 118.091 99.3906H115.671V102.357H118.187C119.522 102.357 120.189 101.824 120.189 100.758ZM119.978 97.415C119.978 96.9821 119.823 96.6745 119.513 96.4922C119.203 96.3053 118.738 96.2119 118.118 96.2119H115.671V98.7549H118.036C118.729 98.7549 119.226 98.6478 119.526 98.4336C119.827 98.2194 119.978 97.8799 119.978 97.415ZM127.436 103L127.265 101.824H127.21C126.836 102.303 126.451 102.642 126.055 102.843C125.663 103.039 125.198 103.137 124.66 103.137C123.931 103.137 123.364 102.95 122.958 102.576C122.552 102.202 122.35 101.685 122.35 101.024C122.35 100.3 122.65 99.737 123.252 99.3359C123.858 98.9349 124.733 98.723 125.877 98.7002L127.292 98.6592V98.167C127.292 97.4606 127.148 96.9274 126.861 96.5674C126.574 96.2074 126.112 96.0273 125.474 96.0273C124.785 96.0273 124.072 96.2188 123.334 96.6016L123.081 96.0137C123.897 95.6309 124.703 95.4395 125.501 95.4395C126.317 95.4395 126.925 95.6514 127.326 96.0752C127.732 96.499 127.935 97.1598 127.935 98.0576V103H127.436ZM124.701 102.521C125.494 102.521 126.118 102.296 126.574 101.845C127.035 101.389 127.265 100.758 127.265 99.9512V99.2197L125.966 99.2744C124.922 99.3245 124.177 99.4886 123.73 99.7666C123.288 100.04 123.067 100.468 123.067 101.052C123.067 101.517 123.209 101.879 123.491 102.139C123.778 102.394 124.182 102.521 124.701 102.521ZM135.488 103H134.818V96.1982H132.187C132.05 97.9984 131.881 99.3724 131.681 100.32C131.485 101.264 131.229 101.959 130.915 102.405C130.605 102.847 130.202 103.068 129.705 103.068C129.527 103.068 129.372 103.05 129.24 103.014V102.398C129.327 102.426 129.45 102.439 129.609 102.439C130.124 102.439 130.539 101.897 130.854 100.812C131.173 99.7233 131.414 97.9756 131.578 95.5693H135.488V103ZM138.619 95.5693V100.942L138.578 102.344L142.987 95.5693H143.89V103H143.24V97.6611L143.268 96.2256L138.858 103H137.977V95.5693H138.619ZM155.723 97.3604C155.723 97.8298 155.606 98.1989 155.374 98.4678C155.142 98.7321 154.763 98.9167 154.239 99.0215V99.0693C154.836 99.1377 155.267 99.3109 155.531 99.5889C155.8 99.8623 155.935 100.257 155.935 100.771C155.935 101.487 155.698 102.038 155.224 102.426C154.754 102.809 154.066 103 153.159 103H150.021V95.5693H153.173C154.021 95.5693 154.656 95.722 155.08 96.0273C155.508 96.3327 155.723 96.777 155.723 97.3604ZM155.217 100.758C155.217 99.8464 154.517 99.3906 153.118 99.3906H150.698V102.357H153.214C154.549 102.357 155.217 101.824 155.217 100.758ZM155.005 97.415C155.005 96.9821 154.85 96.6745 154.54 96.4922C154.23 96.3053 153.765 96.2119 153.146 96.2119H150.698V98.7549H153.063C153.756 98.7549 154.253 98.6478 154.554 98.4336C154.854 98.2194 155.005 97.8799 155.005 97.415ZM164.459 97.415C165.607 97.415 166.469 97.6338 167.043 98.0713C167.617 98.5042 167.904 99.1901 167.904 100.129C167.904 101.049 167.619 101.758 167.05 102.255C166.485 102.752 165.674 103 164.616 103H161.759V93.0059H167.371V93.6621H162.456V97.415H164.459ZM162.456 102.385H164.5C165.398 102.385 166.063 102.205 166.496 101.845C166.929 101.48 167.146 100.908 167.146 100.129C167.146 99.377 166.927 98.8392 166.489 98.5156C166.052 98.1921 165.343 98.0303 164.363 98.0303H162.456V102.385ZM172.929 103.137C171.849 103.137 171.006 102.804 170.399 102.139C169.798 101.473 169.497 100.541 169.497 99.3428C169.497 98.1579 169.789 97.21 170.372 96.499C170.955 95.7835 171.742 95.4258 172.73 95.4258C173.605 95.4258 174.296 95.7311 174.802 96.3418C175.308 96.9525 175.561 97.7819 175.561 98.8301V99.377H170.208C170.217 100.398 170.454 101.177 170.919 101.715C171.388 102.253 172.058 102.521 172.929 102.521C173.353 102.521 173.724 102.492 174.043 102.433C174.367 102.373 174.774 102.246 175.267 102.05V102.665C174.847 102.847 174.46 102.97 174.104 103.034C173.749 103.103 173.357 103.137 172.929 103.137ZM172.73 96.0273C172.015 96.0273 171.441 96.2643 171.008 96.7383C170.575 97.2077 170.322 97.8867 170.249 98.7754H174.843C174.843 97.9141 174.656 97.2419 174.282 96.7588C173.909 96.2712 173.391 96.0273 172.73 96.0273ZM180.79 103.137C179.646 103.137 178.812 102.708 178.288 101.852H178.24L178.261 102.426C178.279 102.763 178.288 103.132 178.288 103.533V106.363H177.611V95.5693H178.186L178.315 96.6289H178.356C178.867 95.8268 179.683 95.4258 180.804 95.4258C181.806 95.4258 182.57 95.7562 183.094 96.417C183.622 97.0732 183.887 98.0303 183.887 99.2881C183.887 100.509 183.609 101.457 183.053 102.132C182.501 102.802 181.747 103.137 180.79 103.137ZM180.776 102.535C181.537 102.535 182.125 102.253 182.54 101.688C182.959 101.122 183.169 100.332 183.169 99.3154C183.169 97.1325 182.381 96.041 180.804 96.041C179.938 96.041 179.302 96.2803 178.896 96.7588C178.491 97.2327 178.288 98.0075 178.288 99.083V99.3018C178.288 100.464 178.482 101.293 178.869 101.79C179.261 102.287 179.897 102.535 180.776 102.535ZM191.092 103H190.422V96.1982H187.79C187.653 97.9984 187.485 99.3724 187.284 100.32C187.088 101.264 186.833 101.959 186.519 102.405C186.209 102.847 185.805 103.068 185.309 103.068C185.131 103.068 184.976 103.05 184.844 103.014V102.398C184.93 102.426 185.053 102.439 185.213 102.439C185.728 102.439 186.143 101.897 186.457 100.812C186.776 99.7233 187.018 97.9756 187.182 95.5693H191.092V103ZM194.223 95.5693V100.942L194.182 102.344L198.591 95.5693H199.493V103H198.844V97.6611L198.871 96.2256L194.462 103H193.58V95.5693H194.223ZM202.665 95.5693V98.8301H207.382V95.5693H208.052V103H207.382V99.418H202.665V103H201.988V95.5693H202.665ZM213.548 103.137C212.468 103.137 211.625 102.804 211.019 102.139C210.417 101.473 210.116 100.541 210.116 99.3428C210.116 98.1579 210.408 97.21 210.991 96.499C211.575 95.7835 212.361 95.4258 213.35 95.4258C214.225 95.4258 214.915 95.7311 215.421 96.3418C215.927 96.9525 216.18 97.7819 216.18 98.8301V99.377H210.827C210.836 100.398 211.073 101.177 211.538 101.715C212.007 102.253 212.677 102.521 213.548 102.521C213.972 102.521 214.343 102.492 214.662 102.433C214.986 102.373 215.394 102.246 215.886 102.05V102.665C215.466 102.847 215.079 102.97 214.724 103.034C214.368 103.103 213.976 103.137 213.548 103.137ZM213.35 96.0273C212.634 96.0273 212.06 96.2643 211.627 96.7383C211.194 97.2077 210.941 97.8867 210.868 98.7754H215.462C215.462 97.9141 215.275 97.2419 214.901 96.7588C214.528 96.2712 214.01 96.0273 213.35 96.0273ZM218.094 102.467C218.094 102.02 218.276 101.797 218.641 101.797C219.014 101.797 219.201 102.02 219.201 102.467C219.201 102.913 219.014 103.137 218.641 103.137C218.276 103.137 218.094 102.913 218.094 102.467ZM221.43 102.467C221.43 102.02 221.612 101.797 221.977 101.797C222.35 101.797 222.537 102.02 222.537 102.467C222.537 102.913 222.35 103.137 221.977 103.137C221.612 103.137 221.43 102.913 221.43 102.467Z" fill="#343434"/>
</svg>
