<svg width="250" height="110" viewBox="0 0 250 110" fill="none" xmlns="http://www.w3.org/2000/svg">
<rect width="250" height="110" fill="white"/>
<path d="M29.788 42.162C28.348 42.162 27.334 41.736 26.746 40.884C26.158 40.02 25.864 38.832 25.864 37.32V32.172C25.864 30.576 26.152 29.364 26.728 28.536C27.304 27.708 28.324 27.294 29.788 27.294C31.096 27.294 32.032 27.648 32.596 28.356C33.172 29.064 33.46 30.108 33.46 31.488V32.64H31.534V31.614C31.534 30.942 31.504 30.426 31.444 30.066C31.384 29.706 31.228 29.418 30.976 29.202C30.736 28.986 30.346 28.878 29.806 28.878C29.254 28.878 28.84 28.998 28.564 29.238C28.3 29.466 28.126 29.79 28.042 30.21C27.958 30.618 27.916 31.17 27.916 31.866V37.644C27.916 38.388 27.976 38.97 28.096 39.39C28.216 39.81 28.408 40.11 28.672 40.29C28.948 40.47 29.326 40.56 29.806 40.56C30.322 40.56 30.706 40.446 30.958 40.218C31.21 39.99 31.366 39.678 31.426 39.282C31.498 38.886 31.534 38.346 31.534 37.662V36.582H33.46V37.662C33.46 39.114 33.184 40.23 32.632 41.01C32.092 41.778 31.144 42.162 29.788 42.162ZM39.9517 42.162C38.5117 42.162 37.4977 41.736 36.9097 40.884C36.3217 40.02 36.0277 38.832 36.0277 37.32V32.172C36.0277 30.576 36.3157 29.364 36.8917 28.536C37.4677 27.708 38.4877 27.294 39.9517 27.294C41.2597 27.294 42.1957 27.648 42.7597 28.356C43.3357 29.064 43.6237 30.108 43.6237 31.488V32.64H41.6977V31.614C41.6977 30.942 41.6677 30.426 41.6077 30.066C41.5477 29.706 41.3917 29.418 41.1397 29.202C40.8997 28.986 40.5097 28.878 39.9697 28.878C39.4177 28.878 39.0037 28.998 38.7277 29.238C38.4637 29.466 38.2897 29.79 38.2057 30.21C38.1217 30.618 38.0797 31.17 38.0797 31.866V37.644C38.0797 38.388 38.1397 38.97 38.2597 39.39C38.3797 39.81 38.5717 40.11 38.8357 40.29C39.1117 40.47 39.4897 40.56 39.9697 40.56C40.4857 40.56 40.8697 40.446 41.1217 40.218C41.3737 39.99 41.5297 39.678 41.5897 39.282C41.6617 38.886 41.6977 38.346 41.6977 37.662V36.582H43.6237V37.662C43.6237 39.114 43.3477 40.23 42.7957 41.01C42.2557 41.778 41.3077 42.162 39.9517 42.162ZM46.4613 27.42H48.4953V33.9H49.2513L51.8613 27.42H53.8953L51.0153 34.35L54.2553 42H52.2213L49.2693 34.89H48.4953V42H46.4613V27.42ZM60.9392 29.832C60.9392 28.86 61.0772 28.122 61.3532 27.618C61.6292 27.114 62.0852 26.85 62.7212 26.826L63.0632 27.528C62.7032 27.564 62.4512 27.738 62.3072 28.05C62.1632 28.362 62.0912 28.866 62.0912 29.562H63.0452V31.578H60.9392V29.832ZM64.1072 29.832C64.1072 28.86 64.2452 28.122 64.5212 27.618C64.7972 27.114 65.2532 26.85 65.8892 26.826L66.2312 27.528C65.8712 27.564 65.6192 27.738 65.4752 28.05C65.3312 28.362 65.2592 28.866 65.2592 29.562H66.2132V31.578H64.1072V29.832ZM73.0495 42.162C71.6215 42.162 70.5955 41.76 69.9715 40.956C69.3595 40.14 69.0535 38.964 69.0535 37.428V31.902C69.0535 30.39 69.3655 29.244 69.9895 28.464C70.6135 27.684 71.6335 27.294 73.0495 27.294C74.4655 27.294 75.4795 27.69 76.0915 28.482C76.7155 29.262 77.0275 30.402 77.0275 31.902V37.446C77.0275 38.958 76.7155 40.122 76.0915 40.938C75.4675 41.754 74.4535 42.162 73.0495 42.162ZM73.0495 40.56C73.8055 40.56 74.3155 40.338 74.5795 39.894C74.8435 39.45 74.9755 38.778 74.9755 37.878V31.488C74.9755 30.6 74.8435 29.946 74.5795 29.526C74.3155 29.094 73.8055 28.878 73.0495 28.878C72.2815 28.878 71.7655 29.094 71.5015 29.526C71.2375 29.946 71.1055 30.6 71.1055 31.488V37.878C71.1055 38.778 71.2375 39.45 71.5015 39.894C71.7655 40.338 72.2815 40.56 73.0495 40.56ZM78.8286 40.488C79.3446 40.5 79.7466 40.404 80.0346 40.2C80.3226 39.996 80.5626 39.516 80.7546 38.76C80.9466 38.004 81.0966 36.81 81.2046 35.178L81.6906 27.42H88.0986V42H86.0646V28.932H83.4366L83.0946 35.178C82.9986 36.81 82.8366 38.106 82.6086 39.066C82.3806 40.026 82.0086 40.758 81.4926 41.262C80.9766 41.766 80.2446 42.018 79.2966 42.018C79.0926 42.018 78.9366 42.012 78.8286 42V40.488ZM91.2856 27.42H93.0856V37.518L97.3516 27.42H98.8096V42H97.0276V31.74L92.7976 42H91.2856V27.42ZM102.228 27.42H104.226L106.8 39.246L109.392 27.42H111.372L111.642 42H110.004L109.842 31.416L107.376 42H106.224L103.776 31.416L103.614 42H101.958L102.228 27.42ZM114.777 27.42H122.805V42H120.771V28.878H116.811V42H114.777V27.42ZM125.906 31.47C126.266 31.446 126.518 31.278 126.662 30.966C126.806 30.654 126.878 30.15 126.878 29.454H125.924V27.42H128.03V29.166C128.03 30.138 127.892 30.876 127.616 31.38C127.34 31.884 126.884 32.154 126.248 32.19L125.906 31.47ZM129.074 31.47C129.434 31.446 129.686 31.278 129.83 30.966C129.974 30.654 130.046 30.15 130.046 29.454H129.092V27.42H131.198V29.166C131.198 30.138 131.06 30.876 130.784 31.38C130.508 31.884 130.052 32.154 129.416 32.19L129.074 31.47Z" fill="#343434"/>
<path d="M30.6807 61.4912C29.4274 61.4912 28.4408 61.8923 27.7207 62.6943C27.0007 63.4964 26.6406 64.5947 26.6406 65.9893C26.6406 67.4157 26.9801 68.5231 27.6592 69.3115C28.3382 70.0999 29.3089 70.4941 30.5713 70.4941C31.4098 70.4941 32.18 70.387 32.8818 70.1729V70.7881C32.221 71.0205 31.3962 71.1367 30.4072 71.1367C29.0036 71.1367 27.8984 70.6833 27.0918 69.7764C26.2852 68.8695 25.8818 67.6025 25.8818 65.9756C25.8818 64.9593 26.0732 64.0638 26.4561 63.2891C26.8434 62.5143 27.3971 61.9173 28.1172 61.498C28.8418 61.0742 29.6826 60.8623 30.6396 60.8623C31.6149 60.8623 32.4876 61.0446 33.2578 61.4092L32.9775 62.0381C32.2484 61.6735 31.4827 61.4912 30.6807 61.4912ZM40.6406 65.3604C40.6406 65.8298 40.5244 66.1989 40.292 66.4678C40.0596 66.7321 39.6813 66.9167 39.1572 67.0215V67.0693C39.7542 67.1377 40.1849 67.3109 40.4492 67.5889C40.7181 67.8623 40.8525 68.2565 40.8525 68.7715C40.8525 69.487 40.6156 70.0384 40.1416 70.4258C39.6722 70.8086 38.984 71 38.0771 71H34.9395V63.5693H38.0908C38.9385 63.5693 39.5742 63.722 39.998 64.0273C40.4264 64.3327 40.6406 64.777 40.6406 65.3604ZM40.1348 68.7578C40.1348 67.8464 39.4352 67.3906 38.0361 67.3906H35.6162V70.3574H38.1318C39.4671 70.3574 40.1348 69.8242 40.1348 68.7578ZM39.9229 65.415C39.9229 64.9821 39.7679 64.6745 39.458 64.4922C39.1481 64.3053 38.6833 64.2119 38.0635 64.2119H35.6162V66.7549H37.9814C38.6742 66.7549 39.1709 66.6478 39.4717 66.4336C39.7725 66.2194 39.9229 65.8799 39.9229 65.415ZM45.8701 71.1367C44.79 71.1367 43.9469 70.804 43.3408 70.1387C42.7393 69.4733 42.4385 68.5413 42.4385 67.3428C42.4385 66.1579 42.7301 65.21 43.3135 64.499C43.8968 63.7835 44.6829 63.4258 45.6719 63.4258C46.5469 63.4258 47.2373 63.7311 47.7432 64.3418C48.249 64.9525 48.502 65.7819 48.502 66.8301V67.377H43.1494C43.1585 68.3978 43.3955 69.1771 43.8604 69.7148C44.3298 70.2526 44.9997 70.5215 45.8701 70.5215C46.2939 70.5215 46.6654 70.4919 46.9844 70.4326C47.3079 70.3734 47.7158 70.2458 48.208 70.0498V70.665C47.7887 70.8473 47.4014 70.9704 47.0459 71.0342C46.6904 71.1025 46.2985 71.1367 45.8701 71.1367ZM45.6719 64.0273C44.9564 64.0273 44.3822 64.2643 43.9492 64.7383C43.5163 65.2077 43.2633 65.8867 43.1904 66.7754H47.7842C47.7842 65.9141 47.5973 65.2419 47.2236 64.7588C46.8499 64.2712 46.3327 64.0273 45.6719 64.0273ZM55.2695 64.1572H52.7949V71H52.125V64.1572H49.5889V63.5693H55.2695V64.1572ZM62.9463 67.2744C62.9463 68.4867 62.6523 69.4346 62.0645 70.1182C61.4766 70.7972 60.6654 71.1367 59.6309 71.1367C58.9792 71.1367 58.4049 70.9795 57.9082 70.665C57.4115 70.3506 57.0309 69.8994 56.7666 69.3115C56.5023 68.7236 56.3701 68.0446 56.3701 67.2744C56.3701 66.0622 56.6641 65.1188 57.252 64.4443C57.8398 63.7653 58.6465 63.4258 59.6719 63.4258C60.6927 63.4258 61.4925 63.7699 62.0713 64.458C62.6546 65.1416 62.9463 66.0804 62.9463 67.2744ZM57.0811 67.2744C57.0811 68.2952 57.3044 69.0928 57.751 69.667C58.2021 70.2367 58.8379 70.5215 59.6582 70.5215C60.4785 70.5215 61.112 70.2367 61.5586 69.667C62.0098 69.0928 62.2354 68.2952 62.2354 67.2744C62.2354 66.249 62.0075 65.4538 61.5518 64.8887C61.1006 64.3236 60.4648 64.041 59.6445 64.041C58.8242 64.041 58.1908 64.3236 57.7441 64.8887C57.3021 65.4492 57.0811 66.2445 57.0811 67.2744ZM70.7051 65.3604C70.7051 65.8298 70.5889 66.1989 70.3564 66.4678C70.124 66.7321 69.7458 66.9167 69.2217 67.0215V67.0693C69.8187 67.1377 70.2493 67.3109 70.5137 67.5889C70.7826 67.8623 70.917 68.2565 70.917 68.7715C70.917 69.487 70.68 70.0384 70.2061 70.4258C69.7367 70.8086 69.0485 71 68.1416 71H65.0039V63.5693H68.1553C69.0029 63.5693 69.6387 63.722 70.0625 64.0273C70.4909 64.3327 70.7051 64.777 70.7051 65.3604ZM70.1992 68.7578C70.1992 67.8464 69.4997 67.3906 68.1006 67.3906H65.6807V70.3574H68.1963C69.5316 70.3574 70.1992 69.8242 70.1992 68.7578ZM69.9873 65.415C69.9873 64.9821 69.8324 64.6745 69.5225 64.4922C69.2126 64.3053 68.7477 64.2119 68.1279 64.2119H65.6807V66.7549H68.0459C68.7386 66.7549 69.2354 66.6478 69.5361 66.4336C69.8369 66.2194 69.9873 65.8799 69.9873 65.415ZM79.0791 67.2744C79.0791 68.4867 78.7852 69.4346 78.1973 70.1182C77.6094 70.7972 76.7982 71.1367 75.7637 71.1367C75.112 71.1367 74.5378 70.9795 74.041 70.665C73.5443 70.3506 73.1637 69.8994 72.8994 69.3115C72.6351 68.7236 72.5029 68.0446 72.5029 67.2744C72.5029 66.0622 72.7969 65.1188 73.3848 64.4443C73.9727 63.7653 74.7793 63.4258 75.8047 63.4258C76.8255 63.4258 77.6253 63.7699 78.2041 64.458C78.7874 65.1416 79.0791 66.0804 79.0791 67.2744ZM73.2139 67.2744C73.2139 68.2952 73.4372 69.0928 73.8838 69.667C74.335 70.2367 74.9707 70.5215 75.791 70.5215C76.6113 70.5215 77.2448 70.2367 77.6914 69.667C78.1426 69.0928 78.3682 68.2952 78.3682 67.2744C78.3682 66.249 78.1403 65.4538 77.6846 64.8887C77.2334 64.3236 76.5977 64.041 75.7773 64.041C74.957 64.041 74.3236 64.3236 73.877 64.8887C73.4349 65.4492 73.2139 66.2445 73.2139 67.2744ZM84.1377 71.1367C83.0576 71.1367 82.2145 70.804 81.6084 70.1387C81.0068 69.4733 80.7061 68.5413 80.7061 67.3428C80.7061 66.1579 80.9977 65.21 81.5811 64.499C82.1644 63.7835 82.9505 63.4258 83.9395 63.4258C84.8145 63.4258 85.5049 63.7311 86.0107 64.3418C86.5166 64.9525 86.7695 65.7819 86.7695 66.8301V67.377H81.417C81.4261 68.3978 81.6631 69.1771 82.1279 69.7148C82.5973 70.2526 83.2673 70.5215 84.1377 70.5215C84.5615 70.5215 84.9329 70.4919 85.252 70.4326C85.5755 70.3734 85.9834 70.2458 86.4756 70.0498V70.665C86.0563 70.8473 85.6689 70.9704 85.3135 71.0342C84.958 71.1025 84.5661 71.1367 84.1377 71.1367ZM83.9395 64.0273C83.224 64.0273 82.6497 64.2643 82.2168 64.7383C81.7839 65.2077 81.5309 65.8867 81.458 66.7754H86.0518C86.0518 65.9141 85.8649 65.2419 85.4912 64.7588C85.1175 64.2712 84.6003 64.0273 83.9395 64.0273ZM98.6025 67.2744C98.6025 68.4867 98.3086 69.4346 97.7207 70.1182C97.1328 70.7972 96.3216 71.1367 95.2871 71.1367C94.6354 71.1367 94.0612 70.9795 93.5645 70.665C93.0677 70.3506 92.6872 69.8994 92.4229 69.3115C92.1585 68.7236 92.0264 68.0446 92.0264 67.2744C92.0264 66.0622 92.3203 65.1188 92.9082 64.4443C93.4961 63.7653 94.3027 63.4258 95.3281 63.4258C96.349 63.4258 97.1488 63.7699 97.7275 64.458C98.3109 65.1416 98.6025 66.0804 98.6025 67.2744ZM92.7373 67.2744C92.7373 68.2952 92.9606 69.0928 93.4072 69.667C93.8584 70.2367 94.4941 70.5215 95.3145 70.5215C96.1348 70.5215 96.7682 70.2367 97.2148 69.667C97.666 69.0928 97.8916 68.2952 97.8916 67.2744C97.8916 66.249 97.6637 65.4538 97.208 64.8887C96.7568 64.3236 96.1211 64.041 95.3008 64.041C94.4805 64.041 93.847 64.3236 93.4004 64.8887C92.9583 65.4492 92.7373 66.2445 92.7373 67.2744ZM107.981 67.2744C107.981 68.4183 107.672 69.3275 107.052 70.002C106.437 70.6764 105.571 71.0547 104.454 71.1367V74.3633H103.784V71.1367C102.672 71.0729 101.802 70.7038 101.173 70.0293C100.544 69.3548 100.229 68.4365 100.229 67.2744C100.229 66.1305 100.539 65.2236 101.159 64.5537C101.779 63.8838 102.654 63.5078 103.784 63.4258V60.3633H104.454V63.4258C105.575 63.5078 106.443 63.8838 107.059 64.5537C107.674 65.2236 107.981 66.1305 107.981 67.2744ZM100.94 67.2744C100.94 68.2451 101.187 69.0107 101.679 69.5713C102.175 70.1273 102.877 70.4395 103.784 70.5078V64.0547C102.85 64.1322 102.141 64.4489 101.658 65.0049C101.18 65.5563 100.94 66.3128 100.94 67.2744ZM107.271 67.2744C107.271 66.3219 107.027 65.5677 106.539 65.0117C106.051 64.4512 105.356 64.1322 104.454 64.0547V70.5078C105.366 70.4303 106.063 70.1068 106.546 69.5371C107.029 68.9674 107.271 68.2132 107.271 67.2744ZM116.185 67.2744C116.185 68.4867 115.891 69.4346 115.303 70.1182C114.715 70.7972 113.904 71.1367 112.869 71.1367C112.217 71.1367 111.643 70.9795 111.146 70.665C110.65 70.3506 110.269 69.8994 110.005 69.3115C109.741 68.7236 109.608 68.0446 109.608 67.2744C109.608 66.0622 109.902 65.1188 110.49 64.4443C111.078 63.7653 111.885 63.4258 112.91 63.4258C113.931 63.4258 114.731 63.7699 115.31 64.458C115.893 65.1416 116.185 66.0804 116.185 67.2744ZM110.319 67.2744C110.319 68.2952 110.543 69.0928 110.989 69.667C111.44 70.2367 112.076 70.5215 112.896 70.5215C113.717 70.5215 114.35 70.2367 114.797 69.667C115.248 69.0928 115.474 68.2952 115.474 67.2744C115.474 66.249 115.246 65.4538 114.79 64.8887C114.339 64.3236 113.703 64.041 112.883 64.041C112.062 64.041 111.429 64.3236 110.982 64.8887C110.54 65.4492 110.319 66.2445 110.319 67.2744ZM121.421 71.1367C120.277 71.1367 119.443 70.7083 118.919 69.8516H118.871L118.892 70.4258C118.91 70.763 118.919 71.1322 118.919 71.5332V74.3633H118.242V63.5693H118.816L118.946 64.6289H118.987C119.498 63.8268 120.313 63.4258 121.435 63.4258C122.437 63.4258 123.201 63.7562 123.725 64.417C124.253 65.0732 124.518 66.0303 124.518 67.2881C124.518 68.5094 124.24 69.4574 123.684 70.1318C123.132 70.8018 122.378 71.1367 121.421 71.1367ZM121.407 70.5352C122.168 70.5352 122.756 70.2526 123.171 69.6875C123.59 69.1224 123.8 68.3317 123.8 67.3154C123.8 65.1325 123.011 64.041 121.435 64.041C120.569 64.041 119.933 64.2803 119.527 64.7588C119.122 65.2327 118.919 66.0075 118.919 67.083V67.3018C118.919 68.4639 119.113 69.2933 119.5 69.79C119.892 70.2868 120.528 70.5352 121.407 70.5352ZM130.041 70.2754L130.465 69.0791L132.604 63.5693H133.541V71H132.898V64.3896C132.798 64.6768 132.691 64.9707 132.577 65.2715C132.468 65.5723 131.725 67.4818 130.349 71H129.747L127.689 65.7773C127.603 65.5677 127.521 65.3467 127.443 65.1143C127.37 64.8818 127.288 64.6312 127.197 64.3623V71H126.582V63.5693H127.478L129.624 69.0381C129.793 69.4801 129.932 69.8926 130.041 70.2754ZM141.17 71H140.5V64.1982H137.868C137.731 65.9984 137.563 67.3724 137.362 68.3203C137.166 69.2637 136.911 69.9587 136.597 70.4053C136.287 70.8473 135.883 71.0684 135.387 71.0684C135.209 71.0684 135.054 71.0501 134.922 71.0137V70.3984C135.008 70.4258 135.132 70.4395 135.291 70.4395C135.806 70.4395 136.221 69.8971 136.535 68.8125C136.854 67.7233 137.096 65.9756 137.26 63.5693H141.17V71ZM146.659 71.1367C145.579 71.1367 144.736 70.804 144.13 70.1387C143.528 69.4733 143.228 68.5413 143.228 67.3428C143.228 66.1579 143.519 65.21 144.103 64.499C144.686 63.7835 145.472 63.4258 146.461 63.4258C147.336 63.4258 148.026 63.7311 148.532 64.3418C149.038 64.9525 149.291 65.7819 149.291 66.8301V67.377H143.938C143.948 68.3978 144.185 69.1771 144.649 69.7148C145.119 70.2526 145.789 70.5215 146.659 70.5215C147.083 70.5215 147.454 70.4919 147.773 70.4326C148.097 70.3734 148.505 70.2458 148.997 70.0498V70.665C148.578 70.8473 148.19 70.9704 147.835 71.0342C147.479 71.1025 147.088 71.1367 146.659 71.1367ZM146.461 64.0273C145.745 64.0273 145.171 64.2643 144.738 64.7383C144.305 65.2077 144.052 65.8867 143.979 66.7754H148.573C148.573 65.9141 148.386 65.2419 148.013 64.7588C147.639 64.2712 147.122 64.0273 146.461 64.0273ZM152.019 63.5693V66.8301H156.735V63.5693H157.405V71H156.735V67.418H152.019V71H151.342V63.5693H152.019ZM160.543 63.5693V68.9424L160.502 70.3438L164.911 63.5693H165.813V71H165.164V65.6611L165.191 64.2256L160.782 71H159.9V63.5693H160.543ZM171.31 71.1367C170.229 71.1367 169.386 70.804 168.78 70.1387C168.179 69.4733 167.878 68.5413 167.878 67.3428C167.878 66.1579 168.17 65.21 168.753 64.499C169.336 63.7835 170.122 63.4258 171.111 63.4258C171.986 63.4258 172.677 63.7311 173.183 64.3418C173.688 64.9525 173.941 65.7819 173.941 66.8301V67.377H168.589C168.598 68.3978 168.835 69.1771 169.3 69.7148C169.769 70.2526 170.439 70.5215 171.31 70.5215C171.733 70.5215 172.105 70.4919 172.424 70.4326C172.747 70.3734 173.155 70.2458 173.647 70.0498V70.665C173.228 70.8473 172.841 70.9704 172.485 71.0342C172.13 71.1025 171.738 71.1367 171.31 71.1367ZM171.111 64.0273C170.396 64.0273 169.822 64.2643 169.389 64.7383C168.956 65.2077 168.703 65.8867 168.63 66.7754H173.224C173.224 65.9141 173.037 65.2419 172.663 64.7588C172.289 64.2712 171.772 64.0273 171.111 64.0273ZM33.5654 86.2744C33.5654 87.4183 33.2555 88.3275 32.6357 89.002C32.0205 89.6764 31.1546 90.0547 30.0381 90.1367V93.3633H29.3682V90.1367C28.2562 90.0729 27.3857 89.7038 26.7568 89.0293C26.1279 88.3548 25.8135 87.4365 25.8135 86.2744C25.8135 85.1305 26.1234 84.2236 26.7432 83.5537C27.363 82.8838 28.238 82.5078 29.3682 82.4258V79.3633H30.0381V82.4258C31.1592 82.5078 32.0273 82.8838 32.6426 83.5537C33.2578 84.2236 33.5654 85.1305 33.5654 86.2744ZM26.5244 86.2744C26.5244 87.2451 26.7705 88.0107 27.2627 88.5713C27.7594 89.1273 28.4613 89.4395 29.3682 89.5078V83.0547C28.4339 83.1322 27.7253 83.4489 27.2422 84.0049C26.7637 84.5563 26.5244 85.3128 26.5244 86.2744ZM32.8545 86.2744C32.8545 85.3219 32.6107 84.5677 32.123 84.0117C31.6354 83.4512 30.9404 83.1322 30.0381 83.0547V89.5078C30.9495 89.4303 31.6468 89.1068 32.1299 88.5371C32.613 87.9674 32.8545 87.2132 32.8545 86.2744ZM41.7686 86.2744C41.7686 87.4867 41.4746 88.4346 40.8867 89.1182C40.2988 89.7972 39.4876 90.1367 38.4531 90.1367C37.8014 90.1367 37.2272 89.9795 36.7305 89.665C36.2337 89.3506 35.8532 88.8994 35.5889 88.3115C35.3245 87.7236 35.1924 87.0446 35.1924 86.2744C35.1924 85.0622 35.4863 84.1188 36.0742 83.4443C36.6621 82.7653 37.4688 82.4258 38.4941 82.4258C39.515 82.4258 40.3148 82.7699 40.8936 83.458C41.4769 84.1416 41.7686 85.0804 41.7686 86.2744ZM35.9033 86.2744C35.9033 87.2952 36.1266 88.0928 36.5732 88.667C37.0244 89.2367 37.6602 89.5215 38.4805 89.5215C39.3008 89.5215 39.9342 89.2367 40.3809 88.667C40.832 88.0928 41.0576 87.2952 41.0576 86.2744C41.0576 85.249 40.8298 84.4538 40.374 83.8887C39.9229 83.3236 39.2871 83.041 38.4668 83.041C37.6465 83.041 37.013 83.3236 36.5664 83.8887C36.1243 84.4492 35.9033 85.2445 35.9033 86.2744ZM47.0049 90.1367C45.861 90.1367 45.027 89.7083 44.5029 88.8516H44.4551L44.4756 89.4258C44.4938 89.763 44.5029 90.1322 44.5029 90.5332V93.3633H43.8262V82.5693H44.4004L44.5303 83.6289H44.5713C45.0817 82.8268 45.8975 82.4258 47.0186 82.4258C48.0212 82.4258 48.7845 82.7562 49.3086 83.417C49.8372 84.0732 50.1016 85.0303 50.1016 86.2881C50.1016 87.5094 49.8236 88.4574 49.2676 89.1318C48.7161 89.8018 47.9619 90.1367 47.0049 90.1367ZM46.9912 89.5352C47.7523 89.5352 48.3402 89.2526 48.7549 88.6875C49.1742 88.1224 49.3838 87.3317 49.3838 86.3154C49.3838 84.1325 48.5954 83.041 47.0186 83.041C46.1527 83.041 45.5169 83.2803 45.1113 83.7588C44.7057 84.2327 44.5029 85.0075 44.5029 86.083V86.3018C44.5029 87.4639 44.6966 88.2933 45.084 88.79C45.4759 89.2868 46.1117 89.5352 46.9912 89.5352ZM50.9219 82.5693H51.6191L53.1914 86.7393C53.6699 88.0199 53.973 88.8835 54.1006 89.3301H54.1416C54.333 88.7422 54.6452 87.8649 55.0781 86.6982L56.6504 82.5693H57.3477L54.0186 91.2031C53.7497 91.9049 53.5241 92.3789 53.3418 92.625C53.1595 92.8711 52.9453 93.0557 52.6992 93.1787C52.4577 93.3018 52.1637 93.3633 51.8174 93.3633C51.5576 93.3633 51.2682 93.3154 50.9492 93.2197V92.6318C51.2135 92.7048 51.4984 92.7412 51.8037 92.7412C52.0361 92.7412 52.2412 92.6865 52.4189 92.5771C52.5967 92.4678 52.7562 92.2969 52.8975 92.0645C53.0433 91.8366 53.2096 91.472 53.3965 90.9707C53.5879 90.474 53.7109 90.1504 53.7656 90L50.9219 82.5693ZM62.0508 89.2754L62.4746 88.0791L64.6143 82.5693H65.5508V90H64.9082V83.3896C64.8079 83.6768 64.7008 83.9707 64.5869 84.2715C64.4775 84.5723 63.7347 86.4818 62.3584 90H61.7568L59.6992 84.7773C59.6126 84.5677 59.5306 84.3467 59.4531 84.1143C59.3802 83.8818 59.2982 83.6312 59.207 83.3623V90H58.5918V82.5693H59.4873L61.6338 88.0381C61.8024 88.4801 61.9414 88.8926 62.0508 89.2754ZM72.5508 90L72.3799 88.8242H72.3252C71.9515 89.3027 71.5664 89.6423 71.1699 89.8428C70.778 90.0387 70.3132 90.1367 69.7754 90.1367C69.0462 90.1367 68.4788 89.9499 68.0732 89.5762C67.6676 89.2025 67.4648 88.6852 67.4648 88.0244C67.4648 87.2998 67.7656 86.737 68.3672 86.3359C68.9733 85.9349 69.8483 85.723 70.9922 85.7002L72.4072 85.6592V85.167C72.4072 84.4606 72.2637 83.9274 71.9766 83.5674C71.6895 83.2074 71.2269 83.0273 70.5889 83.0273C69.9007 83.0273 69.1875 83.2188 68.4492 83.6016L68.1963 83.0137C69.012 82.6309 69.8187 82.4395 70.6162 82.4395C71.432 82.4395 72.0404 82.6514 72.4414 83.0752C72.847 83.499 73.0498 84.1598 73.0498 85.0576V90H72.5508ZM69.8164 89.5215C70.6094 89.5215 71.2337 89.2959 71.6895 88.8447C72.1497 88.389 72.3799 87.7578 72.3799 86.9512V86.2197L71.0811 86.2744C70.0374 86.3245 69.2923 86.4886 68.8457 86.7666C68.4036 87.04 68.1826 87.4684 68.1826 88.0518C68.1826 88.5166 68.3239 88.8789 68.6064 89.1387C68.8936 89.3939 69.2969 89.5215 69.8164 89.5215ZM80.3027 83.4307L80.2207 83.2939C80.3757 82.7471 80.5648 82.166 80.7881 81.5508C81.0114 80.9355 81.2188 80.4206 81.4102 80.0059H81.8613C81.7246 80.4525 81.5811 81.0199 81.4307 81.708C81.2803 82.3916 81.1709 82.9658 81.1025 83.4307H80.3027ZM78.1357 83.4307L78.0537 83.2939C78.1995 82.7835 78.3841 82.2116 78.6074 81.5781C78.8353 80.9447 79.0472 80.4206 79.2432 80.0059H79.6875C79.5508 80.4661 79.4027 81.0518 79.2432 81.7627C79.0882 82.4736 78.9857 83.0296 78.9355 83.4307H78.1357ZM94.7197 90H83.4678V80.0059H84.165V89.3438H88.7451V80.0059H89.4424V89.3438H94.0225V80.0059H94.7197V90ZM96.1348 82.5693H96.832L98.4043 86.7393C98.8828 88.0199 99.1859 88.8835 99.3135 89.3301H99.3545C99.5459 88.7422 99.8581 87.8649 100.291 86.6982L101.863 82.5693H102.561L99.2314 91.2031C98.9626 91.9049 98.737 92.3789 98.5547 92.625C98.3724 92.8711 98.1582 93.0557 97.9121 93.1787C97.6706 93.3018 97.3766 93.3633 97.0303 93.3633C96.7705 93.3633 96.4811 93.3154 96.1621 93.2197V92.6318C96.4264 92.7048 96.7113 92.7412 97.0166 92.7412C97.249 92.7412 97.4541 92.6865 97.6318 92.5771C97.8096 92.4678 97.9691 92.2969 98.1104 92.0645C98.2562 91.8366 98.4225 91.472 98.6094 90.9707C98.8008 90.474 98.9238 90.1504 98.9785 90L96.1348 82.5693ZM103.401 85.5361C103.401 82.3096 104.311 80.4707 106.129 80.0195C106.767 79.86 107.378 79.7256 107.961 79.6162C108.549 79.5023 109.068 79.402 109.52 79.3154L109.643 79.9033L108.822 80.0605C107.469 80.3158 106.576 80.5117 106.143 80.6484C105.527 80.8262 105.044 81.2523 104.693 81.9268C104.347 82.6012 104.149 83.5241 104.099 84.6953H104.14C104.627 84.1165 105.101 83.7041 105.562 83.458C106.022 83.2074 106.496 83.082 106.983 83.082C107.895 83.082 108.592 83.376 109.075 83.9639C109.558 84.5518 109.8 85.388 109.8 86.4727C109.8 87.6257 109.522 88.5257 108.966 89.1729C108.41 89.8154 107.628 90.1367 106.621 90.1367C105.6 90.1367 104.807 89.738 104.242 88.9404C103.682 88.1429 103.401 87.0081 103.401 85.5361ZM106.676 89.5215C107.455 89.5215 108.05 89.2617 108.46 88.7422C108.875 88.2227 109.082 87.4753 109.082 86.5C109.082 85.5749 108.897 84.8776 108.528 84.4082C108.164 83.9342 107.626 83.6973 106.915 83.6973C106.386 83.6973 105.874 83.8636 105.377 84.1963C104.885 84.5244 104.454 84.9801 104.085 85.5635C104.085 86.3792 104.185 87.0947 104.386 87.71C104.591 88.3252 104.887 88.7809 105.274 89.0771C105.662 89.3734 106.129 89.5215 106.676 89.5215ZM112.521 85.7002H114.886C116.631 85.7002 117.504 86.3861 117.504 87.7578C117.504 88.4642 117.26 89.0156 116.772 89.4121C116.285 89.804 115.585 90 114.674 90H111.844V82.5693H112.521V85.7002ZM112.521 86.3428V89.3574H114.783C115.426 89.3574 115.92 89.223 116.267 88.9541C116.613 88.6852 116.786 88.2819 116.786 87.7441C116.786 87.252 116.633 86.8965 116.328 86.6777C116.023 86.4544 115.494 86.3428 114.742 86.3428H112.521ZM119.473 90H118.803V82.5693H119.473V90ZM121.359 86.5V85.9395H124.606V86.5H121.359ZM132.27 90H126.015V89.3984L128.674 86.623C129.421 85.8483 129.945 85.2559 130.246 84.8457C130.547 84.4355 130.768 84.0436 130.909 83.6699C131.05 83.2962 131.121 82.9043 131.121 82.4941C131.121 81.8971 130.925 81.4118 130.533 81.0381C130.141 80.6644 129.633 80.4775 129.009 80.4775C128.175 80.4775 127.377 80.7806 126.616 81.3867L126.247 80.915C127.081 80.2132 128.006 79.8623 129.022 79.8623C129.893 79.8623 130.576 80.0947 131.073 80.5596C131.575 81.0244 131.825 81.6647 131.825 82.4805C131.825 83.1413 131.657 83.7816 131.319 84.4014C130.987 85.0166 130.376 85.7777 129.487 86.6846L126.924 89.3164V89.3438H132.27V90ZM140.452 84.9756C140.452 86.7301 140.183 88.029 139.646 88.8721C139.112 89.7152 138.303 90.1367 137.219 90.1367C136.175 90.1367 135.382 89.7038 134.84 88.8379C134.298 87.9674 134.026 86.68 134.026 84.9756C134.026 83.2347 134.288 81.945 134.812 81.1064C135.341 80.2679 136.143 79.8486 137.219 79.8486C138.271 79.8486 139.074 80.2839 139.625 81.1543C140.176 82.0202 140.452 83.2939 140.452 84.9756ZM134.765 84.9756C134.765 86.5251 134.967 87.6712 135.373 88.4141C135.779 89.1523 136.394 89.5215 137.219 89.5215C138.08 89.5215 138.707 89.1387 139.099 88.373C139.495 87.6074 139.693 86.4749 139.693 84.9756C139.693 83.499 139.495 82.3779 139.099 81.6123C138.707 80.8467 138.08 80.4639 137.219 80.4639C136.357 80.4639 135.733 80.8467 135.346 81.6123C134.958 82.3779 134.765 83.499 134.765 84.9756ZM145.9 90H145.23V82.7197C145.23 82.0589 145.258 81.373 145.312 80.6621C145.244 80.7305 145.174 80.7965 145.101 80.8604C145.028 80.9242 144.324 81.4779 142.988 82.5215L142.599 82.0361L145.312 80.0059H145.9V90ZM156.318 84.2441C156.318 85.5566 156.145 86.6549 155.799 87.5391C155.457 88.4232 154.956 89.0771 154.295 89.501C153.639 89.9248 152.843 90.1367 151.909 90.1367C151.435 90.1367 150.998 90.0775 150.597 89.959V89.3711C150.793 89.4349 151.027 89.485 151.301 89.5215C151.579 89.5534 151.791 89.5693 151.937 89.5693C153.062 89.5693 153.944 89.1637 154.582 88.3525C155.22 87.5368 155.576 86.3496 155.648 84.791H155.566C155.234 85.2285 154.837 85.5658 154.377 85.8027C153.917 86.0352 153.436 86.1514 152.935 86.1514C152.009 86.1514 151.287 85.8962 150.768 85.3857C150.253 84.8753 149.995 84.1507 149.995 83.2119C149.995 82.2093 150.278 81.3981 150.843 80.7783C151.412 80.1585 152.151 79.8486 153.058 79.8486C153.714 79.8486 154.288 80.0218 154.78 80.3682C155.272 80.71 155.651 81.2135 155.915 81.8789C156.184 82.5443 156.318 83.3327 156.318 84.2441ZM153.058 80.4502C152.338 80.4502 151.763 80.694 151.335 81.1816C150.907 81.6647 150.692 82.3278 150.692 83.1709C150.692 83.9639 150.891 84.5654 151.287 84.9756C151.684 85.3857 152.251 85.5908 152.989 85.5908C153.45 85.5908 153.878 85.4883 154.274 85.2832C154.675 85.0781 154.992 84.807 155.225 84.4697C155.462 84.1279 155.58 83.7816 155.58 83.4307C155.58 82.8975 155.473 82.3984 155.259 81.9336C155.049 81.4688 154.753 81.1064 154.37 80.8467C153.992 80.5824 153.554 80.4502 153.058 80.4502ZM158.984 80.0059L159.066 80.1426C158.725 81.3503 158.328 82.4463 157.877 83.4307H157.433C157.565 82.9932 157.704 82.444 157.85 81.7832C157.995 81.1178 158.107 80.5254 158.185 80.0059H158.984ZM161.151 80.0059L161.24 80.1426C161.076 80.7259 160.882 81.3206 160.659 81.9268C160.436 82.5329 160.233 83.0342 160.051 83.4307H159.6C159.736 82.984 159.88 82.4189 160.03 81.7354C160.181 81.0472 160.29 80.4707 160.358 80.0059H161.151Z" fill="#343434"/>
</svg>
